# xmcd
#
# Track frame offsets:
#	150
#	13910
#	24495
#	39487
#	57548
#	71309
#	92904
#	110091
#	122732
#	135488
#	155697
#	171408
#
# Disc length: 2499 seconds
#
# Revision: 1
# Processed by: cddbd v1.5.1PL2 Copyright (c) Steve Scherf et al.
# Submitted via: audiograbber 1.83.01
#
DISCID=a809c10c
DTITLE=Dwight Yoakam - The Essentials
DYEAR=2005
DGENRE=Country
TTITLE0=Little Sister
TTITLE1=Crazy Little Thing Called Love
TTITLE2=Ain't That Lonely Yet
TTITLE3=You're the One
TTITLE4=Guitars, Cadillacs
TTITLE5=Fast As You
TTITLE6=I Sang Dixie
TTITLE7=Honky Tonk Man
TTITLE8=Streets of Bakersfield
TTITLE9=A Thousand Miles From Nowhere
TTITLE10=I Got You
TTITLE11=Please, Please Baby
EXTD=
EXTT0=
EXTT1=
EXTT2=
EXTT3=
EXTT4=
EXTT5=
EXTT6=
EXTT7=
EXTT8=
EXTT9=
EXTT10=
EXTT11=
PLAYORDER=
